<svg width="294" height="294" xmlns="http://www.w3.org/2000/svg" xmlns:xlink="http://www.w3.org/1999/xlink" xml:space="preserve" overflow="hidden"><g transform="translate(-488 -596)"><path d="M610.399 822.454C617.955 815.707 629.767 796.298 623.328 784.789 616.549 772.673 600.953 760.529 585.559 751.776 588.38 751.274 591.119 750.393 593.704 749.158L594.476 749.611C604.156 755.121 613.039 761.927 620.878 769.84L626.172 775.466 626.172 767.742C626.284 757.792 624.255 747.933 620.223 738.835 622.887 739.163 625.453 739.357 627.935 739.436 630.323 745.794 631.917 752.423 632.68 759.173L634.384 773.355 638.644 759.721C641.089 751.998 644.196 744.5 647.929 737.31 651.217 736.47 654.447 735.42 657.601 734.168 657.615 734.162 657.632 734.168 657.638 734.182 657.641 734.19 657.641 734.2 657.636 734.208 651.925 744.08 647.381 754.582 644.096 765.504L641.208 774.614 648.852 768.878C655.577 764.208 662.719 760.171 670.188 756.818 685.073 749.374 695.147 743.753 698.674 735.089L698.688 735.085C700.859 736.733 703.219 738.115 705.719 739.203 700.095 750.438 685.808 757.447 674.17 763.151 660.751 769.732 646.874 776.536 644.4 787.669 640.349 809.198 657.298 823.263 659.729 824.382 666.404 827.037 673.404 828.787 680.544 829.585 682.763 832.11 684.83 834.764 686.734 837.534 689.564 842.256 693.29 846.379 697.703 849.671 699.11 850.609 701.011 850.229 701.95 848.823 702.01 848.732 702.066 848.638 702.116 848.541 702.817 847.111 702.34 845.382 701.006 844.512 697.307 841.644 694.181 838.104 691.791 834.079 691.037 832.975 690.296 831.92 689.545 830.889 702.106 832.442 714.561 834.761 726.839 837.834 727.096 837.902 727.359 837.937 727.625 837.938 729.076 837.937 730.328 836.918 730.622 835.497 730.903 833.85 729.863 832.266 728.24 831.87 715.727 828.744 703.034 826.384 690.234 824.802 678.676 823.174 668.693 821.768 662.341 818.845 660.357 817.757 647.207 805.884 650.401 788.902 652.215 780.741 664.747 774.596 676.867 768.653 689.612 762.406 705.292 754.701 711.573 741.146 730.026 745.496 748.512 734.064 752.862 715.611 756.644 699.567 748.489 683.099 733.435 676.384 730.158 665.863 725.448 655.529 714.547 649.471 714.043 637.953 707.933 627.411 698.189 621.248 693.612 618.285 688.396 616.455 682.971 615.91 676.818 615.209 670.587 616.132 664.901 618.587 658.115 610.066 647.796 605.127 636.902 605.188 622.675 605.233 609.799 613.626 604.015 626.625 593.181 621.829 580.666 622.769 570.67 629.13 561.181 635.028 554.973 645.002 553.873 656.121 553.811 656.811 553.771 657.513 553.753 658.255 543.357 662.184 536.381 672.025 536.118 683.136 518.302 693.984 512.653 717.221 523.501 735.037 533.054 750.727 552.51 757.268 569.601 750.536 588.007 758.71 610.221 773.906 617.983 787.78 622.365 795.611 613.099 811.619 606.575 817.64 599.43 822.153 585.331 823.264 571.685 824.332 560.247 825.229 549.438 826.076 542.229 828.908 540.832 829.42 539.981 830.838 540.187 832.312 540.463 833.982 542.04 835.112 543.71 834.837 543.93 834.801 544.145 834.741 544.352 834.658 550.692 832.12 561.123 831.304 572.165 830.439 574.206 830.279 576.253 830.115 578.294 829.941 575.575 835.625 571.514 840.562 566.461 844.326 564.975 845.058 564.299 846.807 564.907 848.348 565.582 849.899 567.386 850.609 568.937 849.933 568.987 849.912 569.036 849.889 569.085 849.864 574.561 847.127 582.113 837.451 585.356 829.254 594.855 828.211 603.581 826.559 609.422 823.042ZM524.175 713.655C524.932 702.991 530.88 693.38 540.087 687.945 540.559 687.657 542.231 686.725 542.379 686.641L542.389 686.624C542.378 686.427 542.236 683.885 542.236 683.703 542.26 675.565 546.955 668.164 554.306 664.673 554.756 667.104 555.432 669.488 556.324 671.794 556.784 672.969 557.917 673.743 559.179 673.744 560.871 673.746 562.243 672.376 562.245 670.685 562.246 670.251 562.154 669.822 561.976 669.426 560.858 666.509 560.155 663.451 559.888 660.339 559.843 659.118 559.871 657.896 559.973 656.678 560.894 647.466 566.045 639.205 573.913 634.324 583.074 628.499 594.698 628.192 604.155 633.524L607.329 635.289C607.344 635.297 607.362 635.292 607.371 635.277 607.372 635.275 607.372 635.273 607.373 635.272L608.542 631.831C612.625 619.624 624.03 611.372 636.902 611.312 645.523 611.271 653.73 615.008 659.359 621.537L656.538 623.144C655.197 623.866 654.554 625.436 655.005 626.891 655.556 628.49 657.3 629.339 658.899 628.787 659.078 628.725 659.252 628.647 659.417 628.553L665.4 625.144C670.411 622.506 676.086 621.394 681.723 621.945 686.456 622.337 691.018 623.898 694.998 626.49 703.455 631.865 708.539 641.225 708.444 651.245L707.834 658.779C707.697 660.463 708.952 661.94 710.637 662.077 710.638 662.077 710.639 662.077 710.639 662.077 710.723 662.085 710.807 662.088 710.889 662.088 712.483 662.086 713.809 660.861 713.938 659.272L714.164 656.488C722.215 662.251 725.561 671.297 728.014 679.548 728.17 680.009 728.427 680.43 728.767 680.779 729.073 681.081 729.435 681.321 729.832 681.486 742.364 686.42 749.65 699.535 747.217 712.782 745.751 721.227 740.473 728.526 732.912 732.565 722.643 738.106 710.026 736.783 701.129 729.233 700.703 728.786 700.118 728.524 699.501 728.505 698.894 728.427 698.279 728.545 697.745 728.843 694.081 730.617 690.056 731.515 685.985 731.467 679.613 731.795 673.408 729.357 668.965 724.776 668.049 723.665 666.476 723.355 665.207 724.035 665.207 724.035 664.297 724.501 663.846 724.729 648.202 732.602 633.374 736.254 610.64 730.93L600.846 727.753C599.409 727.25 597.816 727.838 597.052 729.156 596.247 730.645 596.801 732.505 598.29 733.31 598.454 733.398 598.625 733.471 598.801 733.529L601.944 734.548C599.422 738.061 596.16 740.977 592.389 743.092 592.264 743.146 592.143 743.209 592.027 743.279 584.241 747.429 574.849 747.192 567.282 742.655 566.29 742.043 565.033 742.061 564.059 742.701 562.898 743.458 562.394 744.903 562.832 746.218 545.862 750.173 528.899 739.622 524.945 722.652 524.258 719.706 523.999 716.676 524.175 713.655ZM619.657 760.137C613.4 754.714 606.684 749.844 599.585 745.583 602.862 743.059 605.691 740.001 607.954 736.538 608.043 736.56 609.066 736.86 610.171 737.116 611.156 737.345 612.209 737.527 612.686 737.623 616.572 744.552 618.947 752.225 619.657 760.137ZM636.715 746.999C636.072 744.343 635.282 741.83 634.429 739.384 636.447 739.273 638.427 739.102 640.348 738.833 639.075 741.506 637.842 744.228 636.717 747ZM667.484 751.32C662.567 753.695 657.504 756.198 652.793 758.966 656.181 749.127 660.938 739.813 666.924 731.301 672.376 735.508 679.101 737.727 685.986 737.59 687.303 737.591 688.619 737.516 689.927 737.366 689.95 737.364 689.968 737.391 689.952 737.408 685.592 742.023 677.805 746.162 667.486 751.322Z" stroke="#85AF3F" stroke-width="3.06249" fill="#A6B726"/><path d="M648.356 873.023C637.889 864.675 630.017 857.349 626.657 845.621 632.79 845.666 638.999 851.782 639.062 851.844 640.264 853.034 642.204 853.024 643.393 851.821 644.583 850.619 644.572 848.68 643.37 847.49 643.037 847.161 635.174 839.466 626.476 839.466L625.381 839.466C624.994 836.555 624.826 833.618 624.88 830.682 626.437 828.222 627.829 825.662 629.046 823.018 629.716 821.648 629.312 819.996 628.086 819.09 626.698 818.12 624.786 818.459 623.816 819.848 623.714 819.994 623.624 820.15 623.549 820.312 619.714 829.956 612.201 837.678 602.666 841.776 593.044 846.245 584.821 853.248 578.877 862.035 577.996 863.258 578.111 864.934 579.151 866.025 580.344 867.228 582.287 867.236 583.49 866.043 583.619 865.915 583.737 865.776 583.841 865.627 587.686 859.854 592.674 854.931 598.498 851.164 601.235 859.39 598.303 870.344 596.192 872.501 595.032 873.69 595.003 875.577 596.125 876.801 597.293 878.024 599.232 878.068 600.454 876.899 600.471 876.883 600.488 876.867 600.504 876.851 604.434 872.921 607.762 859.585 604.307 849.217 604.198 848.82 604.059 848.432 603.89 848.057 604.433 847.768 604.974 847.482 605.513 847.199 610.428 844.903 614.95 841.848 618.916 838.147 619.14 841.835 619.78 845.486 620.824 849.03 618.613 857.391 617.257 865.954 616.779 874.59 616.725 876.28 618.051 877.695 619.741 877.75 619.742 877.75 619.744 877.75 619.745 877.75L619.843 877.75C621.497 877.749 622.851 876.437 622.903 874.785 623.135 869.134 623.757 863.506 624.763 857.941 629.477 865.765 636.541 871.435 644.536 877.812L646.208 879.146C647.529 880.203 649.456 879.988 650.512 878.667 650.598 878.56 650.677 878.448 650.747 878.33 651.517 876.955 651.16 875.224 649.91 874.266Z" stroke="#85AF3F" stroke-width="3.06249" fill="#A6B726"/><path d="M668.68 848.17C665.503 847.419 662.452 846.21 659.622 844.581 658.346 842.682 657.067 840.855 655.825 839.096 651.137 833.107 647.37 826.451 644.65 819.348 644.258 818.041 643.07 817.133 641.705 817.099 640.008 817.1 638.633 818.476 638.633 820.173 638.633 820.503 638.687 820.831 638.791 821.144 641.677 828.88 645.735 836.127 650.821 842.632 657.77 851.432 662.867 861.547 665.805 872.369 666.147 873.73 667.369 874.686 668.773 874.688 669.252 874.689 669.724 874.577 670.151 874.36 671.451 873.647 672.092 872.136 671.704 870.706 670.192 864.703 667.942 858.911 665.007 853.461 665.656 853.659 666.306 853.857 666.951 854.047 674.577 856.292 681.779 858.413 685.484 869.531 685.901 870.782 687.072 871.626 688.39 871.627 690.079 871.631 691.453 870.266 691.457 868.577 691.458 868.204 691.391 867.835 691.26 867.486 686.527 853.427 676.633 850.514 668.68 848.17Z" stroke="#85AF3F" stroke-width="3.06249" fill="#A6B726"/></g></svg>