<svg width="276" height="275" xmlns="http://www.w3.org/2000/svg" xmlns:xlink="http://www.w3.org/1999/xlink" xml:space="preserve" overflow="hidden"><g transform="translate(-927 -479)"><path d="M90.1513 111.57 66.5987 74.8401C71.6896 65.1177 67.9353 53.1088 58.2126 48.0179 48.4902 42.9266 36.4813 46.6812 31.3904 56.4036 26.2993 66.1263 30.0538 78.1349 39.7765 83.2262 41.2067 83.9753 42.7233 84.547 44.2922 84.9292L53.1122 111.57 25.8586 111.57C25.8486 144.232 43.7531 174.268 72.4883 189.796 68.9823 196.28 67.151 203.537 67.1602 210.908L123.667 210.908C122.416 209.572 121.267 208.144 120.229 206.637 119.911 206.161 119.657 205.663 119.37 205.179L73.3161 205.179C73.9756 200.747 75.4016 196.465 77.5299 192.523L80.2513 187.484 75.2182 184.766C50.1382 171.205 33.7511 145.743 31.7969 117.299L197.742 117.299C196.221 138.451 186.708 158.232 171.133 172.626 172.213 174.282 173.158 176.022 173.958 177.83 176.411 175.638 178.744 173.313 180.944 170.867 182.703 168.199 184.706 165.701 186.928 163.404 197.828 148.32 203.687 130.18 203.672 111.57ZM59.1479 111.57 48.6492 79.8674 47.3258 79.6698C40.4422 78.7311 35.2034 73.0219 34.8591 66.0831 34.5956 58.2768 40.71 51.7349 48.516 51.4714 56.3223 51.2076 62.8641 57.322 63.128 65.1283 63.2259 68.0336 62.4264 70.8987 60.838 73.3333L59.8268 74.8859 83.345 111.553Z" stroke="#85AF3F" stroke-width="3.05207" fill="#A6B726" transform="matrix(1.00364 0 0 1 927 479)"/><path d="M247.265 161.308C246.076 160.909 217.903 151.697 198.696 164.636 183.826 174.662 178.93 195.138 177.321 207.066 176.315 207.76 175.287 208.499 174.212 209.358 170.964 211.979 168.236 215.185 166.169 218.811L166.169 218.811C166.111 218.622 166.04 218.387 165.983 218.212L166.037 218.049 166.455 216.903C170.546 205.709 171.488 188.524 163.897 177.255 153.098 161.23 128.508 159.534 127.468 159.468L125.274 159.334 124.575 161.419C124.246 162.408 116.58 185.834 127.379 201.859 135.687 214.196 153.759 218.364 160.377 219.507L160.377 219.507C161.634 223.016 162.005 226.781 161.456 230.467 161.456 230.536 161.399 230.728 161.399 230.728L166.991 231.983C166.991 231.983 167.034 231.799 167.045 231.73 168.698 224.821 172.434 218.586 177.747 213.87 178.764 213.073 179.733 212.377 180.681 211.727 187.75 213.678 195.044 214.7 202.377 214.766 211.366 215.075 220.245 212.709 227.889 207.969 247.102 195.021 249.139 165.453 249.219 164.201L249.353 162.007ZM132.123 198.633C124.649 187.539 127.866 171.256 129.379 165.404 135.369 166.189 151.645 169.305 159.142 180.432 164.338 188.149 164.788 200.065 162.579 209.719 162.579 209.765 162.545 209.768 162.525 209.719 161.815 208.287 161.061 206.834 160.208 205.371 157.151 200.134 154.604 196.241 154.496 196.075 153.625 194.752 151.848 194.385 150.525 195.256 149.203 196.126 148.836 197.903 149.706 199.226 149.729 199.266 152.284 203.168 155.26 208.267 156.209 209.891 157.031 211.478 157.784 213.073 157.784 213.102 157.784 213.122 157.753 213.114 150.414 211.446 138.073 207.442 132.123 198.633ZM224.689 203.216C213.371 210.833 197.656 209.447 188.129 207.573 188.08 207.573 188.08 207.536 188.129 207.516 190.254 206.565 192.308 205.797 194.402 205.041 197.142 204.093 199.828 202.998 202.449 201.758 207.48 199.464 211.887 195.994 215.296 191.641 216.169 190.321 215.806 188.544 214.486 187.671 213.201 186.822 211.476 187.141 210.578 188.392 207.713 191.911 204.075 194.723 199.948 196.611 197.501 197.761 194.993 198.78 192.437 199.661 189.484 200.683 186.594 201.877 183.78 203.236 183.752 203.236 183.732 203.236 183.737 203.208 185.768 192.179 190.564 177.028 201.896 169.406 215.932 159.953 236.557 164.338 243.266 166.126 242.418 172.986 238.74 193.746 224.689 203.211Z" stroke="#85AF3F" stroke-width="3.05207" fill="#A6B726" transform="matrix(1.00364 0 0 1 927 479)"/></g></svg>