<svg width="294" height="294" xmlns="http://www.w3.org/2000/svg" xmlns:xlink="http://www.w3.org/1999/xlink" xml:space="preserve" overflow="hidden"><g transform="translate(-15 -914)"><path d="M61.5338 1018.78 152.047 1054.27 154.633 1055.28 155.657 1053.06 178.83 993.948C178.875 993.834 178.901 993.841 178.889 993.963L172.177 1060.46 193.297 1062.32C193.584 1062.37 193.874 1062.39 194.165 1062.39 197.09 1062.4 199.512 1060.12 199.685 1057.2 201.754 1019.97 205.892 984.493 211.65 970.334 212.821 967.495 211.469 964.245 208.63 963.073 208.602 963.062 208.573 963.05 208.544 963.039L100.059 920.509C97.2055 919.388 93.9834 920.793 92.8622 923.647 92.8613 923.649 92.8604 923.652 92.8595 923.654L58.3895 1011.58C57.2793 1014.44 58.6841 1017.65 61.5338 1018.78ZM191.057 962.762 205.774 968.532C198.19 987.874 194.763 1035.67 193.607 1056.2L178.894 1054.9 185.061 993.828 187.204 972.591ZM98.3548 926.42 185.222 960.475 173.264 990.977 151.167 1047.34 64.3001 1013.29Z" stroke="#85AF3F" stroke-width="3.06249" fill="#A6B726"/><path d="M143.884 986.216C141.177 985.367 138.379 984.841 135.549 984.648 135.473 984.643 135.47 984.617 135.541 984.591 138.189 983.612 140.713 982.322 143.059 980.749 144.648 979.495 145.655 977.645 145.844 975.629 146.069 973.6 145.476 971.564 144.196 969.974 142.684 968.181 140.457 967.148 138.111 967.15 136.386 967.147 134.708 967.714 133.339 968.765 131.499 970.405 129.809 972.206 128.291 974.148 128.257 974.19 128.233 974.181 128.238 974.127 128.433 971.687 128.412 969.234 128.173 966.798 127.507 963.007 124.213 960.243 120.364 960.244 120.037 960.244 119.711 960.265 119.386 960.305 117.366 960.602 115.547 961.692 114.333 963.334 113.914 963.893 113.571 964.506 113.314 965.156 112.834 966.372 112.69 967.694 112.896 968.984 113.548 971.732 114.523 974.394 115.8 976.913 115.835 976.98 115.815 976.996 115.756 976.948 113.55 975.166 111.14 973.65 108.578 972.432 107.743 972.134 106.862 971.981 105.975 971.98 101.793 971.957 98.3842 975.328 98.3609 979.51 98.3438 982.591 100.196 985.376 103.044 986.552 105.753 987.397 108.55 987.923 111.38 988.119 111.455 988.124 111.459 988.15 111.388 988.176 108.741 989.156 106.219 990.443 103.873 992.011 102.844 992.82 102.051 993.89 101.576 995.11 100.572 997.693 101.014 1000.61 102.735 1002.79 104.248 1004.57 106.466 1005.59 108.802 1005.59 110.544 1005.59 112.237 1005.01 113.613 1003.95 115.445 1002.32 117.129 1000.53 118.644 998.606 118.677 998.563 118.701 998.572 118.697 998.626 118.499 1001.07 118.519 1003.52 118.758 1005.96 119.424 1009.75 122.718 1012.52 126.567 1012.52 126.895 1012.52 127.222 1012.5 127.547 1012.46 129.568 1012.16 131.387 1011.07 132.6 1009.43 133.831 1007.82 134.349 1005.78 134.037 1003.78 133.381 1001.03 132.406 998.374 131.13 995.856 131.096 995.789 131.115 995.773 131.174 995.82 133.383 997.6 135.793 999.116 138.354 1000.34 139.19 1000.63 140.07 1000.79 140.957 1000.79 145.139 1000.81 148.548 997.441 148.572 993.259 148.589 990.177 146.737 987.393 143.888 986.217ZM110.573 981.322C110.504 981.498 110.439 981.675 110.378 981.852 110.373 981.865 110.36 981.874 110.345 981.872 108.626 981.67 106.928 981.32 105.268 980.827 104.644 980.478 104.352 979.736 104.573 979.055 104.794 978.475 105.354 978.096 105.974 978.105 106.09 978.106 106.206 978.119 106.32 978.144 107.873 978.908 109.356 979.805 110.754 980.825 110.765 980.834 110.769 980.849 110.764 980.862 110.698 981.014 110.634 981.167 110.573 981.322ZM109.743 999.186C109.463 999.369 109.135 999.465 108.8 999.464 108.293 999.463 107.808 999.255 107.46 998.886 107.225 998.559 107.125 998.154 107.179 997.755 107.194 997.61 107.228 997.468 107.282 997.332 107.342 997.178 107.433 997.039 107.55 996.922 109.04 995.95 110.613 995.113 112.252 994.42 112.265 994.415 112.28 994.419 112.289 994.43 112.572 994.82 112.876 995.195 113.199 995.554L113.199 995.594C112.133 996.871 110.978 998.072 109.743 999.186ZM119.013 967.407C119.077 967.25 119.162 967.102 119.266 966.968 119.497 966.658 119.836 966.447 120.216 966.377 120.265 966.373 120.315 966.371 120.365 966.371L120.365 966.371C121.174 966.37 121.885 966.908 122.105 967.687 122.251 969.335 122.282 970.991 122.197 972.643 122.196 972.659 122.184 972.671 122.169 972.672 121.671 972.715 121.177 972.785 120.687 972.881 120.673 972.883 120.659 972.876 120.653 972.863 119.933 971.256 119.357 969.589 118.932 967.88 118.926 967.719 118.953 967.557 119.013 967.407ZM127.662 1005.79C127.453 1006.09 127.144 1006.29 126.793 1006.38 126.718 1006.39 126.641 1006.39 126.565 1006.39 125.755 1006.39 125.045 1005.85 124.825 1005.07 124.679 1003.43 124.648 1001.77 124.733 1000.12 124.734 1000.11 124.746 1000.1 124.761 1000.1 125.257 1000.05 125.75 999.983 126.239 999.888 126.252 999.885 126.266 999.892 126.272 999.905 126.991 1001.51 127.567 1003.17 127.994 1004.87 127.997 1005.21 127.879 1005.54 127.662 1005.79ZM130.651 989.21C129.493 992.126 126.667 994.036 123.529 994.023 122.554 994.023 121.588 993.839 120.68 993.482 116.744 992.004 114.751 987.615 116.228 983.679 117.349 980.695 120.21 978.724 123.398 978.742 124.376 978.742 125.345 978.927 126.254 979.286 130.208 980.812 132.177 985.254 130.652 989.208 130.652 989.209 130.652 989.209 130.651 989.21ZM133.73 977.158C134.796 975.871 135.953 974.661 137.191 973.538 137.466 973.365 137.785 973.274 138.109 973.275 138.622 973.275 139.112 973.488 139.461 973.864 139.707 974.21 139.809 974.638 139.744 975.058 139.717 975.356 139.585 975.634 139.372 975.844 137.888 976.816 136.32 977.653 134.687 978.344 134.674 978.35 134.659 978.345 134.65 978.334 134.365 977.94 134.058 977.562 133.732 977.201ZM142.354 993.713C142.133 994.292 141.573 994.671 140.953 994.662 140.838 994.662 140.722 994.649 140.61 994.624 139.058 993.857 137.574 992.96 136.175 991.941 136.163 991.932 136.159 991.917 136.164 991.904 136.229 991.754 136.292 991.604 136.352 991.452 136.422 991.273 136.488 991.094 136.55 990.913 136.555 990.9 136.569 990.891 136.583 990.893 138.301 991.095 139.999 991.445 141.656 991.939 142.283 992.288 142.575 993.031 142.354 993.713Z" stroke="#85AF3F" stroke-width="3.06249" fill="#A6B726"/><path d="M280.431 1097.64C275.479 1093.27 269.022 1090.99 262.424 1091.3 261.994 1091.3 261.564 1091.34 261.139 1091.4 255.11 1085.67 247.113 1082.46 238.791 1082.44 230.241 1082.41 222.043 1085.85 216.071 1091.96 210.157 1097.93 206.912 1106.05 207.076 1114.45L207.079 1114.91 206.782 1122.06C206.174 1146.79 185.634 1166.35 160.904 1165.74 160.897 1165.74 160.889 1165.74 160.882 1165.74 138.036 1165.28 119.204 1147.68 117.193 1124.92L116.903 1119.52C117.231 1101.02 102.51 1085.75 84.0064 1085.39L83.4144 1085.39C74.8394 1085.36 66.5673 1088.56 60.242 1094.35 54.6934 1093.65 49.082 1095.01 44.4631 1098.16 39.461 1101.53 36.021 1106.77 34.9151 1112.7L34.8046 1113.41C34.6565 1113.94 34.5767 1114.49 34.5669 1115.04L40.7486 1114.89C40.8603 1114.48 40.9354 1114.06 40.9731 1113.63 41.821 1109.39 44.311 1105.65 47.9011 1103.23 51.6367 1100.68 56.2393 1099.74 60.676 1100.62L62.2743 1100.93 63.4258 1099.78C68.7181 1094.46 75.9159 1091.49 83.4144 1091.52L83.9525 1091.52C99.114 1091.86 111.127 1104.43 110.783 1119.59 110.783 1119.6 110.783 1119.62 110.782 1119.63L111.083 1125.34C113.318 1151.26 134.733 1171.32 160.739 1171.86 161.134 1171.87 161.526 1171.88 161.919 1171.88 174.999 1171.9 187.587 1166.89 197.068 1157.88 206.922 1148.62 212.629 1135.78 212.901 1122.26L213.2 1115.04 213.2 1114.39C213.06 1107.62 215.673 1101.07 220.442 1096.26 225.265 1091.31 231.886 1088.54 238.791 1088.56 245.994 1088.58 252.875 1091.55 257.84 1096.77L258.746 1097.72 260.061 1097.72C260.566 1097.7 261.068 1097.65 261.562 1097.54 261.894 1097.47 262.232 1097.43 262.573 1097.42 273.031 1096.79 282.031 1104.73 282.699 1115.19L288.818 1114.89C288.496 1108.24 285.466 1102 280.431 1097.64Z" stroke="#85AF3F" stroke-width="3.06249" fill="#A6B726"/><path d="M131.177 1098.3C130.488 1098.28 129.81 1098.47 129.23 1098.84 126.409 1100.71 127.148 1106.8 130.882 1112.44 133.873 1116.96 137.878 1119.82 140.804 1119.82 141.493 1119.84 142.171 1119.65 142.751 1119.28 145.572 1117.41 144.833 1111.32 141.1 1105.68 138.107 1101.16 134.102 1098.3 131.177 1098.3Z" stroke="#85AF3F" stroke-width="3.06249" fill="#A6B726"/><path d="M163.474 1141.01C166.985 1140.76 170.345 1139.49 173.141 1137.35 178.667 1133.45 181.563 1128.04 179.612 1125.28 178.661 1124.15 177.214 1123.55 175.74 1123.69 172.229 1123.94 168.869 1125.21 166.073 1127.35 160.548 1131.25 157.651 1136.65 159.603 1139.42 160.554 1140.55 162.001 1141.15 163.474 1141.01Z" stroke="#85AF3F" stroke-width="3.06249" fill="#A6B726"/><path d="M166.209 1084.22C169.584 1078.35 169.945 1072.23 167.012 1070.55 166.491 1070.25 165.901 1070.1 165.303 1070.11 162.353 1070.11 158.38 1073.26 155.593 1078.1 152.218 1083.97 151.857 1090.09 154.789 1091.78 155.311 1092.07 155.9 1092.22 156.498 1092.21 159.448 1092.21 163.421 1089.06 166.209 1084.22Z" stroke="#85AF3F" stroke-width="3.06249" fill="#A6B726"/></g></svg>