<svg width="265" height="302" xmlns="http://www.w3.org/2000/svg" xmlns:xlink="http://www.w3.org/1999/xlink" xml:space="preserve" overflow="hidden"><g transform="translate(-1151 -316)"><path d="M99.375 88.3333C106.998 88.3333 113.177 82.1539 113.177 74.5312 113.177 66.9086 106.998 60.7292 99.375 60.7292 91.7524 60.7292 85.5729 66.9086 85.5729 74.5312 85.582 82.1503 91.756 88.3242 99.375 88.3333ZM99.375 66.25C103.949 66.25 107.656 69.9575 107.656 74.5312 107.656 79.105 103.949 82.8125 99.375 82.8125 94.8013 82.8125 91.0938 79.105 91.0938 74.5312 91.0938 69.9575 94.8013 66.25 99.375 66.25Z" stroke="#85AF3F" stroke-width="2.75102" fill="#A6B726" transform="matrix(1 0 0 1.13962 1151 316)"/><path d="M35.8854 88.3333C43.508 88.3333 49.6875 82.1539 49.6875 74.5312 49.6875 66.9086 43.508 60.7292 35.8854 60.7292 28.2628 60.7292 22.0833 66.9086 22.0833 74.5312 22.0925 82.1503 28.2664 88.3242 35.8854 88.3333ZM35.8854 66.25C40.4592 66.25 44.1667 69.9575 44.1667 74.5312 44.1667 79.105 40.4592 82.8125 35.8854 82.8125 31.3117 82.8125 27.6042 79.105 27.6042 74.5312 27.6042 69.9575 31.3117 66.25 35.8854 66.25Z" stroke="#85AF3F" stroke-width="2.75102" fill="#A6B726" transform="matrix(1 0 0 1.13962 1151 316)"/><path d="M226.354 88.3333C233.977 88.3333 240.156 82.1539 240.156 74.5312 240.156 66.9086 233.977 60.7292 226.354 60.7292 218.732 60.7292 212.552 66.9086 212.552 74.5312 212.561 82.1503 218.735 88.3242 226.354 88.3333ZM226.354 66.25C230.928 66.25 234.635 69.9575 234.635 74.5312 234.635 79.105 230.928 82.8125 226.354 82.8125 221.78 82.8125 218.073 79.105 218.073 74.5312 218.073 69.9575 221.78 66.25 226.354 66.25Z" stroke="#85AF3F" stroke-width="2.75102" fill="#A6B726" transform="matrix(1 0 0 1.13962 1151 316)"/><path d="M162.865 88.3333C170.487 88.3333 176.667 82.1539 176.667 74.5312 176.667 66.9086 170.487 60.7292 162.865 60.7292 155.242 60.7292 149.062 66.9086 149.062 74.5312 149.072 82.1503 155.246 88.3242 162.865 88.3333ZM162.865 66.25C167.438 66.25 171.146 69.9575 171.146 74.5312 171.146 79.105 167.438 82.8125 162.865 82.8125 158.291 82.8125 154.583 79.105 154.583 74.5312 154.583 69.9575 158.291 66.25 162.865 66.25Z" stroke="#85AF3F" stroke-width="2.75102" fill="#A6B726" transform="matrix(1 0 0 1.13962 1151 316)"/><path d="M64.2294 49.7896C62.7603 49.3819 61.239 50.2423 60.8313 51.7114 60.8305 51.715 60.8294 51.7183 60.8285 51.7219L48.5309 95.9825 47.7359 95.7395C43.9525 94.5296 40.0092 93.8942 36.0372 93.8542 31.9869 93.921 27.9652 94.549 24.0874 95.7202L23.2344 95.9604 10.9423 51.7081C10.5337 50.2385 9.0111 49.3783 7.54146 49.7869 6.07181 50.1954 5.21164 51.7181 5.62021 53.1877L19.4223 102.875C19.7547 104.07 20.8431 104.897 22.0833 104.896L22.0833 115.938 22.0833 130.504 11.5523 168.432 22.0833 168.432 22.0833 204.271 49.6875 204.271 49.6875 168.432 60.2185 168.432 49.6875 130.501 49.6875 104.896 49.6875 104.896C50.9267 104.895 52.0137 104.069 52.3458 102.875L66.1479 53.1877C66.5559 51.7197 65.6971 50.1987 64.2294 49.7896ZM27.6042 168.432 33.125 168.432 33.125 198.75 27.6042 198.75ZM44.1667 198.75 38.6458 198.75 38.6458 168.432 44.1667 168.432ZM52.9586 162.912 18.8122 162.912 27.6042 131.252 27.6042 115.938 27.6042 100.501C33.0223 99.0068 38.7422 98.9943 44.1667 100.465L44.1667 130.88Z" stroke="#85AF3F" stroke-width="2.75102" fill="#A6B726" transform="matrix(1 0 0 1.13962 1151 316)"/><path d="M127.719 49.7896C126.25 49.3819 124.729 50.2423 124.321 51.7114 124.32 51.715 124.319 51.7183 124.318 51.7219L111.974 96.1646C111.748 95.9899 111.495 95.8527 111.225 95.7589 107.443 94.5423 103.5 93.9003 99.5268 93.8542 95.4765 93.921 91.4548 94.549 87.577 95.7202 87.2874 95.813 87.015 95.9529 86.7709 96.1343L74.4319 51.7081C74.0233 50.2385 72.5007 49.3783 71.031 49.7869 69.5614 50.1954 68.7013 51.7181 69.1098 53.1877L82.9119 102.875C83.2442 104.07 84.3327 104.897 85.5729 104.896L85.5729 104.896 85.5729 204.271 113.177 204.271 113.177 104.896 113.177 104.896C114.416 104.895 115.503 104.069 115.835 102.875L129.637 53.1877C130.045 51.7197 129.187 50.1987 127.719 49.7896ZM102.135 198.75 102.135 149.062 96.6146 149.062 96.6146 198.75 91.0938 198.75 91.0938 100.518C93.8495 99.8037 96.6803 99.42 99.5268 99.375 102.272 99.4029 105.003 99.7739 107.656 100.479L107.656 198.75Z" stroke="#85AF3F" stroke-width="2.75102" fill="#A6B726" transform="matrix(1 0 0 1.13962 1151 316)"/><path d="M191.209 49.7896C189.739 49.3819 188.218 50.2423 187.81 51.7114 187.81 51.715 187.809 51.7183 187.808 51.7219L175.463 96.1646C175.237 95.9899 174.985 95.8527 174.715 95.7589 170.933 94.5423 166.989 93.9003 163.016 93.8542 158.966 93.921 154.944 94.549 151.067 95.7202 150.777 95.813 150.505 95.9529 150.261 96.1343L137.921 51.7081C137.513 50.2385 135.99 49.3783 134.521 49.7869 133.051 50.1954 132.191 51.7181 132.599 53.1877L146.401 102.875C146.734 104.07 147.822 104.897 149.062 104.896L149.062 130.501 138.532 168.432 149.062 168.432 149.062 204.271 176.667 204.271 176.667 168.432 187.198 168.432 176.667 130.501 176.667 104.896 176.667 104.896C177.906 104.895 178.993 104.069 179.325 102.875L193.127 53.1877C193.535 51.7197 192.676 50.1987 191.209 49.7896ZM154.583 168.432 160.104 168.432 160.104 198.75 154.583 198.75ZM171.146 198.75 165.625 198.75 165.625 168.432 171.146 168.432ZM179.938 162.912 145.791 162.912 154.583 131.255 154.583 100.521C157.339 99.8065 160.17 99.4219 163.016 99.375 165.762 99.4023 168.493 99.7733 171.146 100.479L171.146 130.877Z" stroke="#85AF3F" stroke-width="2.75102" fill="#A6B726" transform="matrix(1 0 0 1.13962 1151 316)"/><path d="M254.698 49.7896C253.229 49.3819 251.708 50.2423 251.3 51.7114 251.299 51.715 251.298 51.7183 251.297 51.7219L238.953 96.1646C238.727 95.9899 238.474 95.8527 238.205 95.7589 234.422 94.5423 230.479 93.9003 226.506 93.8542 222.456 93.921 218.434 94.549 214.556 95.7202 214.267 95.813 213.994 95.9529 213.75 96.1343L201.411 51.7081C201.003 50.2385 199.48 49.3783 198.01 49.7869 196.541 50.1954 195.68 51.7181 196.089 53.1877L209.891 102.875C210.223 104.07 211.312 104.897 212.552 104.896L212.552 104.896 212.552 204.271 240.156 204.271 240.156 104.896 240.156 104.896C241.395 104.895 242.482 104.069 242.815 102.875L256.617 53.1877C257.025 51.7197 256.166 50.1987 254.698 49.7896ZM229.115 198.75 229.115 149.062 223.594 149.062 223.594 198.75 218.073 198.75 218.073 100.518C220.829 99.8037 223.659 99.42 226.506 99.375 229.251 99.4029 231.982 99.7739 234.635 100.479L234.635 198.75Z" stroke="#85AF3F" stroke-width="2.75102" fill="#A6B726" transform="matrix(1 0 0 1.13962 1151 316)"/></g></svg>