<svg width="294" height="294" xmlns="http://www.w3.org/2000/svg" xmlns:xlink="http://www.w3.org/1999/xlink" xml:space="preserve" overflow="hidden"><g transform="translate(-223 -734)"><path d="M408.214 964.882C401.975 963.157 395.931 960.791 390.179 957.823L390.136 957.792C390.121 957.792 390.102 957.792 390.084 957.768 382.367 953.371 376.308 946.563 372.836 938.388L372.836 913.616C372.83 910.164 372.642 906.715 372.272 903.283 374.945 900.735 378.094 898.74 381.539 897.412 390.264 911.086 408.179 915.516 422.271 907.484L422.271 907.484C445.65 894.601 448.553 870.734 448.553 843.974 448.553 843.974 424.865 850.528 408.799 850.528 408.251 850.528 407.712 850.528 407.182 850.507 390.349 850.515 376.709 864.167 376.716 881 376.716 881.055 376.716 881.701 376.716 882.589 376.729 885.822 377.413 889.016 378.725 891.97 376.133 893.112 373.648 894.482 371.298 896.064 370.643 892.083 369.85 888.188 369.029 884.206 365.997 869.506 362.861 854.329 366.677 830.169 367.422 825.607 368.482 821.102 369.85 816.688 373.725 814.236 378.169 812.829 382.749 812.605 382.719 813.009 382.639 813.408 382.639 813.815L382.639 815.04C383.316 822.063 388.749 827.691 395.743 828.616L395.743 828.616C396.96 828.798 398.188 828.891 399.418 828.895 410.551 828.895 418.1 820.932 425.428 811.313 418.922 808.722 412.737 805.388 406.998 801.375 404.377 799.37 401.169 798.283 397.869 798.282 393.579 798.283 389.488 800.087 386.593 803.252 385.757 804.243 385.045 805.332 384.473 806.495 380.453 806.392 376.45 807.068 372.686 808.486 377.028 797.438 382.565 786.897 389.199 777.053 390.148 777.466 391.127 777.809 392.127 778.079 393.324 778.413 394.558 778.598 395.802 778.63 396.198 778.632 396.595 778.602 396.987 778.541 404.277 777.295 409.73 771.165 410.119 763.78 410.404 756.781 411.5 749.839 413.383 743.093 400 743.093 388.072 744.544 381.628 756.234L381.628 756.234C380.315 758.531 379.625 761.133 379.629 763.78 379.367 767.669 380.876 771.469 383.735 774.119 379.859 779.924 376.336 785.958 373.185 792.188 371.568 790.347 369.812 788.633 367.933 787.061 368.423 785.911 368.769 784.704 368.962 783.469 369.04 782.962 369.084 782.45 369.094 781.937 369.094 773.519 362.269 766.695 353.851 766.695 353.585 766.695 353.315 766.695 353.04 766.695 346.317 766.312 339.654 765.212 333.164 763.415 333.164 776.798 334.616 788.73 346.305 795.17L346.305 795.17C348.602 796.484 351.203 797.173 353.848 797.17 357.969 797.189 361.885 795.372 364.53 792.212 366.662 794.015 368.581 796.054 370.251 798.291 367.947 803.371 365.956 808.587 364.288 813.91 364.288 813.962 364.252 814.008 364.242 814.06 362.67 819.022 361.459 824.091 360.62 829.228 358.498 841.734 358.21 854.483 359.765 867.072 355.754 866.14 351.801 864.974 347.926 863.581 347.971 863.458 348.033 863.345 348.079 863.222L349.046 860.601C350.014 858.08 350.532 855.409 350.578 852.709 350.591 835.873 336.954 822.214 320.118 822.2 320.112 822.2 320.106 822.2 320.1 822.2 319.57 822.218 319.028 822.224 318.48 822.224 302.414 822.224 278.728 815.671 278.728 815.671 278.728 842.434 281.632 866.294 305.011 879.181L305.011 879.181C313.022 883.75 322.672 884.442 331.253 881.064 337.062 878.689 341.946 874.5 345.178 869.121 350.234 870.992 355.43 872.461 360.718 873.512 361.413 877.619 362.221 881.545 363.024 885.435 365.25 894.668 366.482 904.114 366.699 913.609L366.699 926.166C360.77 949.006 351.258 952.859 338.116 958.16 332.296 960.35 326.676 963.042 321.322 966.205L321.276 966.205C321.248 966.205 321.236 966.245 321.208 966.26 312.502 971.715 304.902 978.762 298.806 987.033 297.78 988.378 298.037 990.3 299.382 991.327 300.727 992.353 302.649 992.096 303.675 990.751 308.619 984.069 314.602 978.223 321.395 973.435 323.256 979.398 323.219 985.79 321.291 991.731 320.825 993.357 321.765 995.053 323.391 995.519 323.391 995.519 323.392 995.519 323.392 995.519 323.667 995.598 323.951 995.638 324.237 995.639 325.604 995.638 326.804 994.732 327.18 993.418 329.63 985.818 329.459 977.616 326.696 970.125 331.122 967.723 335.702 965.619 340.407 963.825 341.393 963.427 342.369 963.029 343.335 962.631 342.748 966.86 343.475 971.168 345.417 974.97 346.145 976.497 347.972 977.146 349.5 976.418 351.027 975.691 351.676 973.863 350.948 972.336 347.236 964.551 350.719 959.694 350.911 959.437 350.991 959.302 351.061 959.162 351.12 959.017 357.788 955.547 363.227 950.109 366.699 943.441L366.699 980.804C357.487 985.597 346.826 997.709 346.345 998.26 345.147 999.453 345.143 1001.39 346.336 1002.59 347.529 1003.79 349.468 1003.79 350.667 1002.6 350.764 1002.5 350.855 1002.4 350.939 1002.29 355.645 996.955 360.926 992.155 366.683 987.976L366.683 1014.09C366.683 1015.78 368.054 1017.15 369.746 1017.15 371.437 1017.15 372.808 1015.78 372.808 1014.09L372.808 993.608C377.921 996.505 382.741 999.89 387.202 1003.71 388.513 1004.78 390.442 1004.59 391.511 1003.28 392.555 1002 392.397 1000.12 391.153 999.035 389.046 997.256 379.445 989.339 372.821 986.947L372.821 950.47C376.482 955.459 381.142 959.63 386.504 962.72L386.504 962.72C386.565 962.763 392.54 967.265 390.179 978.783 389.881 980.447 390.988 982.039 392.653 982.337 394.261 982.626 395.813 981.6 396.178 980.008 397.151 975.778 397.088 971.376 395.995 967.176 399.421 968.49 402.9 969.595 406.352 970.685 409.414 971.65 412.425 972.602 415.377 973.68 413.659 977.107 411.463 985.404 420.525 998.003 421.102 998.804 422.028 999.278 423.015 999.277 424.706 999.274 426.075 997.9 426.072 996.209 426.071 995.569 425.869 994.945 425.496 994.426 417.254 982.966 420.4 977.022 421.073 975.993 428.163 979.078 434.399 983.836 439.246 989.86 440.358 991.135 442.292 991.267 443.567 990.155 444.764 989.112 444.965 987.327 444.03 986.044 433.345 972.814 420.568 968.78 408.214 964.882ZM382.841 881C382.856 867.587 393.701 856.703 407.114 856.641 407.672 856.656 408.241 856.662 408.817 856.662 420.124 856.216 431.356 854.607 442.333 851.86 441.617 875.399 437.148 891.397 421.027 901.167L419.251 902.18C408.345 908.413 394.484 905.28 387.318 894.962L389.612 894.043C397.265 891.351 404.529 887.66 411.215 883.064 412.554 882.029 412.8 880.104 411.765 878.766 410.73 877.427 408.805 877.181 407.467 878.216 401.215 882.454 394.442 885.865 387.315 888.365 386.302 888.776 385.312 889.177 384.336 889.59 383.36 887.4 382.85 885.03 382.838 882.632ZM388.764 813.815C388.764 813.555 388.813 813.297 388.834 813.037 390.516 813.314 392.18 813.691 393.817 814.167 395.425 814.69 397.153 813.81 397.676 812.201 398.199 810.593 397.318 808.865 395.71 808.342 395.655 808.324 395.6 808.308 395.544 808.293 394.083 807.861 392.663 807.512 391.257 807.234 392.985 805.432 395.372 804.412 397.869 804.407 399.806 804.404 401.691 805.034 403.237 806.201 407.102 809.097 411.255 811.585 415.631 813.625 410.459 819.389 405.525 822.767 399.418 822.767 398.777 822.764 398.136 822.73 397.498 822.662L396.543 822.537C392.462 821.998 389.261 818.77 388.758 814.685ZM386.926 759.272 387.386 758.5C391.061 752.455 397.017 750.198 405.589 749.502 404.559 754.223 404.019 759.037 403.975 763.869 403.518 768.19 400.283 771.701 396.013 772.508 395.942 772.514 395.87 772.514 395.798 772.508 395.072 772.476 394.352 772.357 393.655 772.153 393.382 772.082 393.094 771.966 392.816 771.874 394.224 769.951 395.094 768.87 395.137 768.811 396.206 767.501 396.01 765.571 394.699 764.503 393.388 763.434 391.459 763.63 390.39 764.94 390.188 765.188 389.018 766.652 387.288 769.026 386.183 767.508 385.642 765.653 385.757 763.78 385.747 762.2 386.153 760.645 386.936 759.272ZM362.889 782.59C362.855 782.832 362.785 783.067 362.73 783.306 361.463 782.509 360.131 781.82 358.748 781.248 357.171 780.637 355.397 781.42 354.786 782.997 354.181 784.559 354.943 786.319 356.497 786.945 357.561 787.386 358.585 787.916 359.56 788.528 358.29 789.836 356.629 790.695 354.828 790.978 354.503 791.015 354.176 791.033 353.848 791.033 352.267 791.039 350.711 790.627 349.34 789.839L348.562 789.394C342.523 785.719 340.266 779.766 339.571 771.197 344.003 772.152 348.514 772.695 353.046 772.82 353.352 772.82 353.643 772.82 353.931 772.82 358.923 772.877 362.943 776.933 362.956 781.925 362.949 782.147 362.93 782.369 362.898 782.59ZM343.289 858.463 342.321 861.085C342.287 861.18 342.238 861.265 342.205 861.357 334.5 858.168 327.152 854.179 320.28 849.456 318.887 848.496 316.98 848.847 316.02 850.24 315.061 851.633 315.412 853.54 316.804 854.5 323.883 859.368 331.439 863.502 339.357 866.836 336.84 870.653 333.233 873.626 329.005 875.368 322.152 878.063 314.446 877.509 308.049 873.861L306.349 872.894C290.167 863.143 285.683 847.135 284.967 823.557 295.943 826.303 307.173 827.911 318.48 828.356 319.055 828.356 319.625 828.356 320.185 828.331 333.594 828.393 344.437 839.269 344.459 852.678 344.415 854.659 344.024 856.617 343.304 858.463Z" stroke="#85AF3F" stroke-width="3.06249" fill="#A6B726"/></g></svg>