<svg width="337" height="337" xmlns="http://www.w3.org/2000/svg" xmlns:xlink="http://www.w3.org/1999/xlink" xml:space="preserve" overflow="hidden"><g transform="translate(-1357 -62)"><path d="M1525.5 97.1042C1451.78 97.1042 1392.1 156.781 1392.1 230.5 1392.1 304.219 1451.78 363.896 1525.5 363.896 1599.22 363.896 1658.9 304.219 1658.9 230.5 1658.9 156.781 1599.22 97.1042 1525.5 97.1042ZM1406.15 230.5C1406.15 199.257 1418.08 171.174 1437.74 149.76 1440.9 151.516 1444.06 154.324 1444.76 156.781L1444.76 178.897C1444.76 180.301 1445.11 182.056 1446.16 183.109L1469.33 212.948 1471.09 211.193C1472.14 210.14 1472.49 208.384 1471.79 206.98L1467.58 199.959C1465.82 197.151 1468.63 193.641 1471.79 194.694 1472.84 195.045 1473.55 195.747 1473.9 196.449L1485.48 219.267C1486.89 221.724 1488.99 223.83 1491.45 224.532L1506.89 229.798C1507.95 230.149 1508.65 230.851 1509 231.553L1510.05 233.308C1511.11 235.766 1513.56 237.17 1516.37 237.17L1520.59 237.17C1521.64 237.17 1522.69 237.872 1523.39 238.574L1527.96 245.244C1529.01 246.648 1530.41 247.701 1532.17 248.052L1539.54 249.807C1541.65 250.158 1542.7 252.616 1542 254.371 1542 254.371 1536.38 259.987 1536.38 268.061 1536.38 291.23 1557.44 297.9 1557.44 303.166 1557.44 317.558 1555.34 337.568 1554.29 345.291 1545.16 347.397 1535.68 348.801 1525.85 348.801 1459.86 349.854 1406.15 296.145 1406.15 230.5ZM1570.43 341.078C1578.16 334.408 1591.14 323.175 1595.71 318.26 1601.68 311.591 1602.73 300.708 1602.73 300.708 1602.73 300.708 1627.3 294.039 1627.3 276.135 1627.3 263.849 1602.73 258.583 1602.73 258.583 1598.52 244.893 1577.81 237.521 1560.6 237.521 1556.74 237.521 1543.05 244.542 1543.05 244.542L1536.03 241.031 1536.03 230.5C1536.03 228.394 1534.63 226.99 1532.52 226.99L1525.5 226.99 1525.5 216.458C1525.5 214.352 1524.1 212.948 1521.99 212.948L1518.48 212.948 1514.62 215.405C1511.11 217.863 1506.19 216.458 1504.44 212.597 1504.44 212.597 1500.93 207.682 1500.93 205.576 1500.93 190.481 1518.48 191.534 1518.48 191.534L1526.2 191.534C1527.96 191.534 1529.36 192.588 1529.71 194.343L1531.82 203.119C1532.17 204.523 1533.57 205.927 1535.33 205.927L1536.73 205.927C1538.49 205.927 1539.89 204.874 1540.24 203.119L1542.7 190.13C1543.05 189.077 1543.4 188.024 1544.11 186.971L1553.93 174.684C1556.04 172.227 1558.85 170.823 1562.01 170.823L1571.14 170.823C1573.24 170.823 1574.65 169.419 1574.65 167.312L1574.65 163.802 1573.59 162.749C1571.49 160.643 1572.89 156.781 1576.05 156.781L1578.16 156.781C1580.26 156.781 1581.67 158.185 1581.67 160.292 1581.67 162.398 1583.07 163.802 1585.18 163.802L1588.69 163.802 1590.79 154.675C1591.5 151.516 1590.09 148.707 1587.63 146.952L1557.8 129.049C1557.44 128.698 1556.74 128.698 1556.04 128.698L1550.07 128.698C1546.21 128.698 1543.05 131.857 1543.05 135.719L1543.05 139.229C1543.05 141.335 1541.65 142.74 1539.54 142.74L1536.03 142.74 1532.52 139.229 1521.99 139.229C1519.88 139.229 1518.48 137.825 1518.48 135.719L1518.48 126.943C1518.48 125.89 1518.83 124.836 1519.88 124.134L1542.35 114.656 1545.86 120.624C1546.56 121.326 1547.26 121.677 1548.32 121.677L1557.09 121.677C1559.2 121.677 1560.6 120.273 1560.6 118.167L1560.6 116.411C1609.4 131.506 1644.85 176.791 1644.85 230.5 1644.85 280.348 1613.96 323.175 1570.43 341.078Z" stroke="#85AF3F" stroke-width="3.06116" fill="#A6B726"/><path d="M1568.68 215.756 1551.83 210.14C1550.42 209.789 1549.37 209.789 1547.97 210.14L1536.03 212.948C1534.98 213.65 1534.63 215.054 1536.03 216.458L1552.18 216.458C1553.23 216.458 1553.93 216.458 1554.64 216.809L1566.92 221.724C1569.03 222.426 1571.14 221.022 1571.14 218.916 1571.14 217.511 1570.08 216.107 1568.68 215.756Z" stroke="#85AF3F" stroke-width="3.06116" fill="#A6B726"/></g></svg>