<svg width="117" height="117" xmlns="http://www.w3.org/2000/svg" xmlns:xlink="http://www.w3.org/1999/xlink" xml:space="preserve" overflow="hidden"><g transform="translate(-1687 -540)"><path d="M1732.09 604.706 1761.34 604.706C1763.36 604.706 1765 606.343 1765 608.362 1765 610.381 1763.36 612.018 1761.34 612.018L1739.41 612.018C1738.73 612.018 1738.19 612.564 1738.19 613.237 1738.19 613.91 1738.73 614.456 1739.41 614.456L1761.34 614.456C1764.71 614.456 1767.44 611.728 1767.44 608.362 1767.44 604.997 1764.71 602.268 1761.34 602.268L1732.09 602.268C1729.9 602.287 1727.74 602.875 1725.84 603.975L1691.34 620.559C1690.72 620.823 1690.44 621.539 1690.7 622.159 1690.96 622.778 1691.68 623.065 1692.3 622.801 1692.33 622.787 1692.37 622.771 1692.4 622.753L1726.97 606.129C1728.52 605.212 1730.29 604.721 1732.09 604.706Z" fill="#E2D41D"/><path d="M1794.25 592.394C1793.13 592.37 1792.03 592.681 1791.08 593.286L1770.24 605.23C1769.66 605.566 1769.45 606.314 1769.79 606.898 1770.13 607.483 1770.87 607.685 1771.46 607.348L1792.37 595.358C1792.93 594.997 1793.58 594.813 1794.25 594.832 1796.27 594.832 1797.91 596.468 1797.91 598.488 1797.86 599.569 1797.4 600.59 1796.62 601.342L1763.19 625.779C1762.56 626.262 1761.78 626.526 1760.98 626.531L1738.19 626.531C1725.72 626.531 1715.59 630.342 1708.07 637.866 1707.56 638.295 1707.48 639.064 1707.91 639.582 1708.34 640.1 1709.11 640.172 1709.63 639.742 1709.69 639.693 1709.74 639.639 1709.79 639.58 1716.84 632.537 1726.39 628.969 1738.19 628.969L1760.98 628.969C1762.29 628.961 1763.57 628.534 1764.62 627.75L1798.14 603.253 1798.28 603.131C1799.56 601.92 1800.3 600.249 1800.34 598.489 1800.34 595.125 1797.61 592.398 1794.25 592.394Z" fill="#E2D41D"/><path d="M1740.96 593.887C1741.71 593.887 1742.4 593.875 1743.06 593.866L1743.16 593.988C1744.48 595.337 1745.31 597.093 1745.5 598.972 1745.51 599.017 1745.53 599.062 1745.54 599.106 1745.56 599.172 1745.58 599.237 1745.61 599.301 1745.64 599.378 1745.69 599.451 1745.74 599.519 1745.78 599.571 1745.82 599.619 1745.86 599.664 1745.93 599.725 1746 599.778 1746.08 599.822 1746.12 599.857 1746.18 599.888 1746.23 599.915 1746.32 599.952 1746.42 599.977 1746.52 599.989 1746.56 600.003 1746.61 600.014 1746.65 600.022L1746.71 600.022C1746.77 600.022 1746.82 600.018 1746.88 600.011 1746.92 599.998 1746.97 599.982 1747.01 599.964 1747.1 599.945 1747.18 599.917 1747.26 599.88 1747.32 599.845 1747.38 599.804 1747.44 599.758 1747.56 599.669 1747.67 599.555 1747.74 599.423 1747.78 599.355 1747.82 599.284 1747.85 599.209 1747.87 599.138 1747.89 599.064 1747.9 598.989 1747.91 598.945 1747.92 598.901 1747.93 598.856 1748.01 594.223 1750.34 589.918 1754.18 587.316 1755.62 587.385 1757.39 587.49 1759.34 587.49 1764.77 587.49 1771.54 586.667 1776.28 581.918 1784.33 573.63 1782.38 558.518 1782.38 558.518 1781.03 558.37 1779.67 558.3 1778.31 558.309 1773.26 558.309 1764.64 559.194 1759.22 564.611 1753.61 570.36 1752.86 579.774 1752.85 585.268 1749.76 587.397 1747.46 590.474 1746.28 594.032 1745.9 593.469 1745.48 592.929 1745.03 592.414 1744.89 592.245 1744.75 592.074 1744.61 591.899 1744.91 587.398 1745.36 580.077 1740.45 574.483 1736.54 570.023 1730.03 569.189 1725.7 569.189 1724.23 569.18 1722.77 569.279 1721.32 569.486 1721.32 569.486 1719.66 582.302 1726.31 588.621 1731.34 593.417 1736.81 593.887 1740.96 593.887ZM1760.93 566.343C1765.8 561.482 1773.9 560.755 1778.31 560.755 1778.98 560.755 1779.58 560.772 1780.1 560.796 1780.29 564.908 1780.06 574.524 1774.55 580.204 1771.24 583.518 1766.4 585.061 1759.33 585.061 1758.56 585.061 1757.83 585.044 1757.14 585.019 1761.48 579.954 1765.02 576.732 1768.18 574.983 1768.77 574.657 1768.98 573.915 1768.65 573.326 1768.33 572.737 1767.59 572.524 1767 572.85 1763.6 574.733 1759.86 578.109 1755.34 583.364 1755.64 575.597 1757.5 569.859 1760.93 566.342ZM1723.59 571.706C1724.19 571.664 1724.9 571.635 1725.69 571.635 1729.05 571.635 1735.2 572.214 1738.61 576.099 1742.27 580.27 1742.48 585.66 1742.28 589.844 1739.89 585.943 1736.73 582.562 1733 579.902 1732.45 579.511 1731.69 579.638 1731.3 580.186 1730.91 580.734 1731.04 581.495 1731.58 581.886 1735.15 584.438 1738.15 587.691 1740.41 591.446 1736.34 591.395 1732.05 590.715 1727.99 586.862 1723.71 582.805 1723.45 575.232 1723.59 571.705Z" fill="#E2D41D"/></g></svg>