<svg width="117" height="117" xmlns="http://www.w3.org/2000/svg" xmlns:xlink="http://www.w3.org/1999/xlink" xml:space="preserve" overflow="hidden"><g transform="translate(-334 -540)"><path d="M353.732 564.37C353.732 561.279 351.226 558.773 348.135 558.773 345.044 558.774 342.538 561.279 342.538 564.37 342.538 567.461 345.044 569.967 348.135 569.967 351.226 569.967 353.732 567.462 353.732 564.371 353.732 564.371 353.732 564.37 353.732 564.37ZM348.135 567.53C346.39 567.53 344.976 566.115 344.976 564.37 344.976 562.625 346.39 561.211 348.135 561.211 349.88 561.211 351.294 562.625 351.294 564.37 351.294 564.37 351.294 564.37 351.294 564.37 351.292 566.114 349.879 567.528 348.135 567.53Z" fill="#E2D41D"/><path d="M362.65 571.275C360.59 571.275 358.919 572.946 358.919 575.006 358.919 577.067 360.589 578.737 362.65 578.738 364.711 578.738 366.381 577.067 366.382 575.006 366.382 575.006 366.382 575.006 366.382 575.006 366.382 572.946 364.711 571.275 362.651 571.275 362.65 571.275 362.65 571.275 362.65 571.275ZM362.65 576.3C361.936 576.3 361.357 575.721 361.357 575.006 361.357 574.292 361.936 573.713 362.65 573.713 363.365 573.712 363.944 574.292 363.944 575.006 363.944 575.006 363.944 575.006 363.944 575.006 363.943 575.72 363.365 576.299 362.65 576.3Z" fill="#E2D41D"/><path d="M353.208 585.854C351.398 585.854 349.931 587.32 349.931 589.13 349.931 590.939 351.398 592.406 353.208 592.406 355.017 592.406 356.484 590.94 356.484 589.13 356.484 587.321 355.017 585.854 353.208 585.854 353.208 585.854 353.208 585.854 353.208 585.854ZM353.208 589.969C352.745 589.969 352.369 589.593 352.369 589.13 352.369 588.667 352.744 588.291 353.208 588.291 353.671 588.291 354.046 588.667 354.046 589.13 354.046 589.13 354.046 589.13 354.046 589.13 354.046 589.593 353.671 589.968 353.208 589.969Z" fill="#E2D41D"/><path d="M430.265 604.582C430.265 601.896 428.087 599.719 425.401 599.719 422.715 599.719 420.538 601.897 420.538 604.583 420.539 607.268 422.716 609.446 425.402 609.446 428.088 609.446 430.265 607.268 430.265 604.582 430.265 604.582 430.265 604.582 430.265 604.582ZM425.402 607.008C424.062 607.008 422.976 605.922 422.976 604.582 422.976 603.243 424.062 602.156 425.401 602.156 426.741 602.156 427.827 603.242 427.828 604.582 427.826 605.921 426.741 607.007 425.402 607.008Z" fill="#E2D41D"/><path d="M438.015 610.583C436.224 610.583 434.773 612.034 434.773 613.825 434.773 615.616 436.225 617.067 438.015 617.067 439.806 617.067 441.257 615.615 441.257 613.825 441.257 612.034 439.806 610.583 438.015 610.583 438.015 610.583 438.015 610.583 438.015 610.583ZM438.015 614.629C437.57 614.629 437.21 614.269 437.21 613.825 437.21 613.38 437.571 613.02 438.015 613.02 438.459 613.02 438.82 613.381 438.82 613.825 438.819 614.269 438.459 614.629 438.015 614.629Z" fill="#E2D41D"/><path d="M429.81 623.25C428.237 623.25 426.963 624.525 426.963 626.097 426.963 627.67 428.237 628.944 429.809 628.944 431.382 628.944 432.656 627.67 432.656 626.097 432.656 626.097 432.656 626.097 432.656 626.097 432.656 624.525 431.382 623.25 429.81 623.25ZM429.81 626.507C429.583 626.507 429.4 626.324 429.4 626.097 429.4 625.871 429.583 625.688 429.809 625.688 430.036 625.688 430.219 625.871 430.219 626.097 430.219 626.097 430.219 626.097 430.219 626.097 430.219 626.323 430.036 626.507 429.81 626.507Z" fill="#E2D41D"/><path d="M406.885 624.337C403.494 623.675 400.587 626.578 397.132 630.44 396.939 630.655 396.649 630.756 396.365 630.706 396.091 630.662 395.86 630.477 395.755 630.22 395.36 629.251 394.976 628.259 394.609 627.253 394.476 626.885 394.512 626.477 394.707 626.137 394.893 625.806 395.216 625.575 395.59 625.505 398.967 624.91 402.223 623.757 405.222 622.094 408.095 620.158 410.477 616.441 408.546 611.818 407.927 610.464 406.726 609.465 405.283 609.101 402.589 608.45 399.745 609.017 397.507 610.651 396.073 611.657 394.843 612.926 393.879 614.389 393.606 614.768 393.345 615.129 393.067 615.463 392.824 615.758 392.428 615.88 392.06 615.773 391.649 615.649 391.356 615.287 391.32 614.859 390.787 612.297 390.599 609.675 390.762 607.063L390.781 606.784C390.787 606.633 390.874 606.497 391.008 606.428 391.147 606.352 391.316 606.356 391.451 606.439 392.58 607.084 393.749 607.656 394.952 608.15 397.254 609.115 399.077 609.208 400.526 608.435 402.446 607.409 403.084 605.157 403.395 603.554 403.924 601.589 403.586 599.493 402.467 597.794 401.352 596.424 399.691 595.613 397.925 595.575 395.855 595.354 393.776 595.905 392.086 597.121 392.62 594.703 393.322 592.096 394.204 588.993 395.148 589.593 396.038 590.276 396.861 591.034 397.983 592.029 399.166 592.952 400.405 593.798 401.848 594.853 403.664 595.265 405.421 594.937 407.419 594.407 409.119 593.094 410.135 591.295 410.972 589.734 411.009 587.867 410.236 586.274 409.063 583.386 406.608 581.212 403.599 580.397 401.583 579.887 399.448 580.155 397.621 581.147 397.304 581.29 396.998 581.428 396.701 581.539 397.162 580.128 397.62 578.726 398.143 577.33 401.631 580.039 406.654 579.407 409.362 575.92 410.349 574.65 410.929 573.112 411.028 571.507 411.222 568.885 410.249 566.661 408.55 565.844 405.931 564.587 403.068 565.96 400.343 567.554 400.54 566.234 400.671 564.906 400.735 563.573 400.737 563.326 400.923 563.119 401.168 563.091 404.567 562.777 406.367 562.429 408.177 560.595 412.825 555.878 411.478 552.872 410.261 551.501 408.706 549.96 406.504 549.263 404.346 549.629 402.005 549.948 399.881 551.167 398.425 553.027 397.074 550.117 394.762 546.206 391.749 545.151 390.401 544.673 388.908 544.831 387.69 545.582 386.412 546.415 385.709 547.895 385.874 549.412 385.969 553.004 389.145 558.591 393.547 560.865 393.658 560.928 393.728 561.044 393.732 561.171 393.77 562.501 393.712 563.832 393.56 565.153L393.163 564.673C390.068 560.916 387.623 557.951 385.014 558.591 382.031 559.323 379.843 562.862 379.811 567.008 379.621 570.298 381.62 573.321 384.722 574.435 385.785 574.861 386.882 575.201 388 575.452 388.791 575.641 389.466 576.154 389.859 576.865 390.254 577.563 390.336 578.395 390.085 579.157L389.227 581.778C389.172 581.958 389.018 582.091 388.831 582.117 388.642 582.154 388.449 582.078 388.335 581.923L387.776 581.183C386.624 579.478 385.138 578.024 383.409 576.909 381.709 575.695 379.593 575.212 377.535 575.569 376.02 575.779 374.641 576.559 373.681 577.75 371.885 580.375 373.215 584.928 376.418 587.122 378.133 588.295 380.972 588.481 383.717 588.66 384.162 588.689 384.597 588.718 385.012 588.75 385.489 588.787 385.924 589.036 386.197 589.428 386.477 589.827 386.563 590.33 386.432 590.8 385.791 593.044 385.269 595.322 384.868 597.622 383.926 596.124 382.766 594.774 381.427 593.617 377.171 589.694 372.157 590.85 370.547 592.598 368.24 595.102 369.167 600.332 372.453 603.358 373.911 604.702 376.255 604.92 378.521 605.13 379.81 605.201 381.088 605.404 382.335 605.739 383.149 606.094 383.69 606.882 383.73 607.769 383.728 608.389 383.738 609.021 383.761 609.658 381.711 607.675 380.694 607.404 378.016 606.882 373.726 606.045 368.777 609.144 368.209 612.063 367.447 615.981 370.865 618.499 374.363 619.18 375.65 619.345 376.948 619.394 378.243 619.325 379.901 619.268 381.56 619.313 383.212 619.46 384.289 619.566 385.188 620.33 385.465 621.377 385.738 622.49 386.043 623.625 386.377 624.758 384.691 623.661 382.791 622.935 380.803 622.627 378.36 622.147 375.829 622.778 373.898 624.35 372.394 625.499 371.315 627.115 370.831 628.945 370.503 631.086 371.068 633.267 372.394 634.979 373.657 636.789 375.553 638.06 377.706 638.54 380.034 638.989 383.301 637.736 385.923 636.724 388.287 635.81 390.956 636.863 392.059 639.144 394.005 643.163 396.275 647.017 398.847 650.668 399.42 651.461 400.296 651.98 401.267 652.1 402.243 652.217 403.223 651.921 403.971 651.284 405.378 650.097 405.624 648.022 404.533 646.539 403.743 645.442 402.48 643.568 400.925 640.951 403.134 641.262 405.377 640.696 407.175 639.376 410.295 637.115 411.76 633.207 410.894 629.453 410.328 626.668 408.791 624.707 406.885 624.337ZM405.813 637.355C404.479 638.361 402.792 638.78 401.142 638.514 400.276 638.344 399.391 638.699 398.883 639.42 398.35 640.157 398.294 641.137 398.74 641.93 399.906 644.006 401.179 646.02 402.555 647.963 402.911 648.442 402.811 649.119 402.332 649.475 402.111 649.639 401.835 649.712 401.562 649.68 401.265 649.645 400.997 649.486 400.824 649.242 398.341 645.695 396.141 641.958 394.245 638.065 392.589 634.648 388.586 633.075 385.047 634.451 382.839 635.301 379.818 636.469 378.172 636.148 376.624 635.787 375.267 634.86 374.368 633.55 373.446 632.379 373.034 630.888 373.223 629.41 373.596 628.152 374.364 627.047 375.414 626.259 376.786 625.128 378.593 624.674 380.337 625.02 382.34 625.33 384.239 626.121 385.87 627.324 386.832 627.949 388.118 627.676 388.744 626.714 389.077 626.201 389.167 625.566 388.99 624.98 388.559 623.582 388.169 622.175 387.834 620.798 387.312 618.76 385.578 617.26 383.485 617.037 381.732 616.88 379.969 616.83 378.209 616.887 377.082 616.944 375.951 616.91 374.829 616.787 373.145 616.459 370.092 615.147 370.601 612.53 370.878 611.105 374.339 608.651 377.551 609.275 380.208 609.793 380.616 609.871 382.874 612.224 383.622 613.009 384.865 613.039 385.65 612.291 386.068 611.892 386.289 611.33 386.255 610.753 386.193 609.75 386.163 608.749 386.167 607.78 386.129 605.834 384.911 604.108 383.09 603.42 381.673 603.025 380.217 602.785 378.747 602.704 376.884 602.53 374.957 602.352 374.104 601.566 371.735 599.383 371.102 595.594 372.339 594.25 373.023 593.507 376.56 592.447 379.776 595.409 380.954 596.421 381.975 597.603 382.803 598.917 383.509 600.043 384.994 600.384 386.121 599.678 386.689 599.322 387.083 598.744 387.208 598.085 387.608 595.992 388.122 593.823 388.78 591.452 389.382 589.295 388.122 587.058 385.966 586.456 385.716 586.386 385.461 586.341 385.202 586.32 384.776 586.287 384.33 586.258 383.876 586.228 381.685 586.085 378.958 585.907 377.795 585.111 375.621 583.623 374.768 580.478 375.693 579.126 376.289 578.486 377.092 578.076 377.961 577.969 379.39 577.729 380.857 578.071 382.032 578.92 383.541 579.888 384.834 581.157 385.828 582.649L386.398 583.403C387.386 584.698 389.238 584.946 390.533 583.957 391.004 583.596 391.357 583.102 391.543 582.539L392.403 579.911C393.308 577.104 391.766 574.096 388.959 573.192 388.832 573.151 388.704 573.115 388.575 573.084 387.585 572.862 386.615 572.564 385.672 572.19 383.475 571.467 382.06 569.332 382.248 567.027 382.271 564.079 383.741 561.413 385.595 560.957 386.724 560.699 389.248 563.755 391.282 566.222L392.16 567.286C392.908 568.185 394.244 568.307 395.142 567.558 395.55 567.219 395.815 566.739 395.886 566.213 396.12 564.517 396.215 562.806 396.169 561.095 396.138 560.084 395.563 559.168 394.667 558.7 391.122 556.87 388.388 552.252 388.31 549.348 388.214 548.725 388.446 548.096 388.923 547.684 389.522 547.291 390.271 547.205 390.944 547.452 393.343 548.291 395.75 552.636 397.082 556.102 397.323 556.73 398.027 557.044 398.656 556.804 398.995 556.674 399.258 556.399 399.374 556.054L399.401 555.976C400.393 553.875 402.362 552.403 404.658 552.047 406.016 551.788 407.417 552.184 408.438 553.117 409.881 554.745 408.148 557.152 406.441 558.883 405.291 560.049 404.367 560.347 400.944 560.663 399.49 560.81 398.365 562.001 398.3 563.461 398.235 564.808 398.097 566.15 397.888 567.481 397.693 568.731 398.547 569.903 399.797 570.099 400.321 570.181 400.857 570.079 401.314 569.809 403.97 568.241 406.036 567.336 407.493 568.041 408.235 568.398 408.71 569.811 408.598 571.327 408.427 574.392 405.803 576.737 402.739 576.566 401.624 576.504 400.554 576.107 399.668 575.428 399.011 574.899 398.135 574.73 397.329 574.976 396.543 575.222 395.93 575.843 395.694 576.633 395.233 578.163 394.736 579.705 394.228 581.26 393.855 582.406 394.482 583.637 395.628 584.01 396.027 584.14 396.456 584.152 396.862 584.044 397.467 583.869 398.057 583.643 398.624 583.368 399.955 582.6 401.534 582.383 403.023 582.766 405.27 583.389 407.099 585.021 407.973 587.182 408.43 588.051 408.47 589.079 408.082 589.981 407.397 591.214 406.262 592.136 404.913 592.553 403.793 592.732 402.648 592.446 401.743 591.76 400.59 590.971 399.489 590.109 398.445 589.181 397.502 588.316 396.481 587.542 395.395 586.867 394.777 586.518 394.033 586.471 393.375 586.739 392.7 587.006 392.182 587.565 391.968 588.258 390.888 591.737 390.122 594.607 389.556 597.29 389.377 598.113 389.708 598.964 390.396 599.451 391.082 599.948 391.997 599.994 392.73 599.569L393.184 599.302C394.479 598.313 396.098 597.849 397.72 598.003 398.792 598.001 399.813 598.46 400.523 599.264 401.189 600.422 401.362 601.8 401.003 603.087 400.663 604.837 400.131 605.883 399.377 606.285 398.629 606.687 397.458 606.557 395.893 605.903 394.789 605.449 393.716 604.924 392.679 604.332 391.309 603.526 389.545 603.984 388.739 605.355 388.51 605.746 388.375 606.186 388.348 606.638L388.331 606.892C388.154 609.726 388.356 612.571 388.931 615.352 389.226 617.221 390.981 618.497 392.851 618.202 393.665 618.074 394.405 617.656 394.936 617.026 395.25 616.651 395.546 616.243 395.855 615.816 396.651 614.586 397.674 613.519 398.87 612.671 400.502 611.445 402.59 610.993 404.583 611.436 405.321 611.604 405.948 612.087 406.297 612.758 407.466 615.461 406.417 618.612 403.86 620.073 401.141 621.553 398.199 622.578 395.149 623.108 393.111 623.494 391.771 625.459 392.157 627.498 392.195 627.698 392.249 627.896 392.319 628.088 392.697 629.124 393.091 630.143 393.499 631.141 394.186 632.806 396.094 633.598 397.759 632.91 398.214 632.722 398.621 632.433 398.948 632.066 401.88 628.789 404.288 626.325 406.419 626.729 407.161 626.873 408.116 628.023 408.506 629.939 409.172 632.727 408.113 635.644 405.813 637.355Z" fill="#E2D41D"/></g></svg>