<svg width="117" height="117" xmlns="http://www.w3.org/2000/svg" xmlns:xlink="http://www.w3.org/1999/xlink" xml:space="preserve" overflow="hidden"><g transform="translate(-785 -540)"><path d="M839.671 593.852C840.421 593.852 841.11 593.838 841.766 593.831L841.867 593.953C843.167 595.281 843.986 597.006 844.191 598.853L844.191 610.854C843.555 610.748 842.912 610.692 842.268 610.688 840.86 610.683 839.465 610.962 838.167 611.508 836.688 612.13 835.344 613.034 834.212 614.171L830.012 618.366C825.258 623.004 824.876 630.52 829.135 635.617 833.642 640.831 841.523 641.405 846.737 636.897 846.966 636.7 847.187 636.495 847.4 636.281L851.863 631.818C856.372 627.32 856.76 620.145 852.763 615.187 851.487 613.606 849.171 613.358 847.59 614.634 847.489 614.716 847.392 614.803 847.3 614.895L846.629 615.562 846.629 598.808C846.713 594.182 849.041 589.885 852.871 587.287 854.316 587.356 856.089 587.462 858.036 587.462 863.466 587.462 870.239 586.638 874.977 581.89 883.02 573.602 881.07 558.49 881.07 558.49 879.724 558.342 878.37 558.272 877.016 558.281 871.963 558.281 863.339 559.166 857.921 564.583 852.315 570.331 851.564 579.746 851.549 585.24 848.466 587.369 846.162 590.446 844.986 594.003 844.601 593.441 844.185 592.902 843.739 592.387 843.598 592.219 843.455 592.045 843.312 591.87 843.612 587.369 844.061 580.048 839.153 574.455 835.241 569.995 828.73 569.16 824.406 569.16 822.938 569.151 821.471 569.25 820.018 569.458 820.018 569.458 818.366 582.274 825.015 588.593 830.05 593.381 835.516 593.852 839.671 593.852ZM859.641 566.308C864.503 561.45 872.611 560.719 877.016 560.719 877.685 560.719 878.288 560.736 878.805 560.759 878.986 564.877 878.751 574.509 873.259 580.168 869.952 583.481 865.116 585.024 858.041 585.024 857.278 585.024 856.546 585.006 855.847 584.982 860.188 579.918 863.731 576.694 866.89 574.945 867.479 574.619 867.692 573.877 867.366 573.288 867.04 572.699 866.298 572.486 865.709 572.812 862.309 574.695 858.57 578.073 854.056 583.328 854.347 575.562 856.21 569.823 859.641 566.307ZM849.021 616.618C849.506 616.134 850.292 616.135 850.776 616.62 850.805 616.65 850.833 616.682 850.86 616.714 854.067 620.706 853.755 626.472 850.137 630.095L845.674 634.558C841.754 638.48 835.396 638.481 831.474 634.56 831.301 634.388 831.135 634.209 830.975 634.024 827.562 629.891 827.893 623.831 831.735 620.094L835.935 615.894C836.846 614.982 837.925 614.255 839.112 613.754 840.111 613.334 841.184 613.12 842.268 613.125 842.871 613.127 843.472 613.185 844.064 613.298L844.051 613.786 842.101 623.536ZM822.294 571.668C822.891 571.628 823.605 571.597 824.397 571.597 827.757 571.597 833.904 572.177 837.316 576.062 840.972 580.232 841.184 585.624 840.987 589.807 838.588 585.905 835.431 582.525 831.703 579.865 831.155 579.474 830.393 579.601 830.002 580.149 829.611 580.697 829.738 581.458 830.286 581.849 833.849 584.402 836.852 587.655 839.112 591.409 835.042 591.357 830.747 590.678 826.69 586.826 822.422 582.77 822.161 575.196 822.294 571.668Z" fill="#E2D41D"/><path d="M884.407 605.803C884.26 605.803 884.111 605.803 883.963 605.812 883.01 605.846 882.067 606.01 881.159 606.3 872.879 599.708 860.824 601.072 854.225 609.347L853.737 610.2C854.103 610.566 854.469 610.809 854.834 611.175 861.027 617.335 861.053 627.349 854.893 633.542 854.873 633.561 854.854 633.581 854.834 633.6L849.959 638.475C846.985 641.514 842.91 643.222 838.658 643.214 829.916 643.254 822.796 636.2 822.756 627.458 822.736 623.284 824.366 619.272 827.291 616.294L827.534 616.05 828.144 615.441 830.094 613.369C832.158 609.932 831.071 605.475 827.656 603.375 826.513 602.696 825.208 602.337 823.878 602.335 821.496 602.325 819.262 603.489 817.906 605.447 813.385 601.032 806.151 601.086 801.697 605.569 801.062 606.246 800.491 606.98 799.991 607.763 795.812 608.014 792.498 611.381 792.312 615.562L792.312 616.781 794.75 616.781 794.75 615.602C794.902 612.69 797.223 610.362 800.133 610.2L801.352 610.128 802.025 609.118C802.436 608.467 802.905 607.856 803.426 607.29 806.938 603.75 812.647 603.706 816.212 607.192L818.272 609.202 819.911 606.834C820.816 605.538 822.298 604.768 823.878 604.773 824.763 604.773 825.631 605.01 826.394 605.459 828.597 606.803 829.359 609.639 828.125 611.906L826.394 613.745 825.81 614.33 825.533 614.607C818.476 621.817 818.6 633.382 825.81 640.438 829.241 643.797 833.857 645.67 838.658 645.651 843.558 645.671 848.258 643.703 851.683 640.198L856.558 635.323C863.526 628.339 863.711 617.091 856.976 609.882 862.938 603.495 872.809 602.767 879.644 608.209L880.619 608.987 881.824 608.644C882.516 608.418 883.235 608.286 883.963 608.25L884.015 608.25 884.069 608.25C884.182 608.25 884.294 608.243 884.407 608.243 888.553 608.26 891.979 611.482 892.25 615.619L892.25 616.781 894.688 616.781 894.688 615.562C894.394 610.096 889.881 605.812 884.407 605.803Z" fill="#E2D41D"/></g></svg>