<svg width="117" height="117" xmlns="http://www.w3.org/2000/svg" xmlns:xlink="http://www.w3.org/1999/xlink" xml:space="preserve" overflow="hidden"><g transform="translate(-1236 -540)"><path d="M1332.89 602.102C1327.07 592.922 1318.38 587.392 1311.02 587.393 1309.37 587.386 1307.73 587.699 1306.2 588.317L1304.33 580.86C1313.76 576.787 1324.35 572.146 1329.65 563.811L1330.31 562.783 1328.25 561.473 1327.6 562.502C1324.59 567.224 1319.59 570.732 1314.07 573.648 1314.42 567.611 1312.82 561.62 1309.5 556.567 1306.07 551.068 1300.83 546.936 1294.69 544.885 1294 551.328 1295.58 557.81 1299.15 563.213 1302.34 568.277 1307.05 572.195 1312.61 574.398 1309.99 575.714 1307.3 576.915 1304.67 578.056 1297.81 572.472 1287.76 567.862 1276.09 565.555 1271.15 564.568 1266.14 564.063 1261.11 564.048 1255.49 563.984 1249.9 564.76 1244.52 566.351 1251.38 572.047 1261.56 576.758 1273.41 579.1 1278.34 580.087 1283.36 580.591 1288.39 580.606 1293.11 580.639 1297.82 580.102 1302.41 579.009 1302.43 579.005 1302.43 579.024 1302.42 579.03 1296.47 581.597 1290.91 584.055 1287.46 587.191 1284.3 590.337 1282.22 594.403 1281.51 598.805 1281.07 598.747 1280.63 598.714 1280.18 598.707 1271.36 598.708 1262.99 608.756 1261.01 622.191 1258.9 636.48 1264.82 649.189 1274.23 650.578 1274.79 650.66 1275.35 650.702 1275.92 650.702 1284.73 650.702 1293.11 640.653 1295.09 627.218 1297.04 613.986 1292.1 602.128 1283.89 599.34 1284.49 595.425 1286.31 591.802 1289.1 588.993 1292.01 586.346 1296.82 584.121 1302.06 581.841L1303.98 589.515C1296.32 594.805 1296.19 608.557 1303.81 620.561 1309.64 629.741 1318.32 635.27 1325.69 635.27 1328.05 635.305 1330.37 634.66 1332.37 633.413 1340.4 628.315 1340.63 614.297 1332.89 602.102ZM1301.21 561.896C1298.56 557.873 1297.09 553.198 1296.94 548.388 1301.25 550.523 1304.89 553.81 1307.45 557.884 1310.09 561.907 1311.57 566.582 1311.72 571.392 1307.4 569.257 1303.77 565.97 1301.21 561.896ZM1292.68 626.862C1290.91 638.863 1283.54 648.264 1275.92 648.264 1275.47 648.264 1275.03 648.231 1274.59 648.166 1270.87 647.618 1267.65 644.787 1265.51 640.193 1263.13 634.633 1262.41 628.507 1263.42 622.547 1265.19 610.546 1272.55 601.145 1280.18 601.145 1280.63 601.145 1281.07 601.178 1281.51 601.242 1289.44 602.412 1294.55 614.145 1292.68 626.862ZM1288.39 578.169C1283.52 578.154 1278.66 577.665 1273.88 576.709 1265.45 575.155 1257.4 572.019 1250.14 567.467 1253.76 566.8 1257.43 566.472 1261.11 566.486 1265.98 566.5 1270.84 566.989 1275.61 567.946 1284.04 569.5 1292.09 572.636 1299.35 577.187 1295.74 577.854 1292.07 578.183 1288.39 578.169ZM1331.06 631.355C1329.45 632.354 1327.58 632.867 1325.69 632.833 1318.99 632.833 1311.02 627.376 1305.87 619.255 1302.52 614.222 1300.69 608.33 1300.6 602.285 1300.68 597.218 1302.48 593.32 1305.64 591.308 1307.26 590.309 1309.12 589.796 1311.02 589.83 1317.72 589.83 1325.68 595.287 1330.84 603.408 1334.19 608.441 1336.02 614.333 1336.11 620.378 1336.02 625.445 1334.23 629.343 1331.06 631.355Z" fill="#E2D41D"/><path d="M1269.53 625.545C1269.63 624.879 1269.17 624.259 1268.5 624.16 1267.84 624.055 1267.23 624.501 1267.12 625.157 1267.12 625.167 1267.12 625.177 1267.12 625.188 1266.28 629.967 1267.09 634.89 1269.43 639.143 1269.78 639.715 1270.54 639.892 1271.11 639.538 1271.68 639.187 1271.86 638.445 1271.51 637.874 1269.47 634.109 1268.77 629.76 1269.53 625.545Z" fill="#E2D41D"/><path d="M1307.76 607.814C1307.59 607.166 1306.91 606.785 1306.27 606.963 1305.62 607.142 1305.24 607.813 1305.42 608.462 1306.67 613.392 1309.33 617.854 1313.05 621.315 1313.56 621.756 1314.33 621.701 1314.77 621.193 1315.21 620.688 1315.16 619.925 1314.66 619.482 1311.29 616.335 1308.9 612.285 1307.76 607.814Z" fill="#E2D41D"/></g></svg>